<?xml version="1.0" encoding="UTF-8" standalone="no"?>
<!-- Created with Inkscape (http://www.inkscape.org/) -->

<svg
   xmlns:dc="http://purl.org/dc/elements/1.1/"
   xmlns:cc="http://creativecommons.org/ns#"
   xmlns:rdf="http://www.w3.org/1999/02/22-rdf-syntax-ns#"
   xmlns:svg="http://www.w3.org/2000/svg"
   xmlns="http://www.w3.org/2000/svg"
   xmlns:sodipodi="http://sodipodi.sourceforge.net/DTD/sodipodi-0.dtd"
   xmlns:inkscape="http://www.inkscape.org/namespaces/inkscape"
   width="129.776"
   height="27.503401"
   viewBox="0 0 34.336566 7.2769415"
   version="1.1"
   id="svg5403"
   inkscape:version="0.92.0 r15299"
   sodipodi:docname="essilor.svg">
  <defs
     id="defs5397" />
  <sodipodi:namedview
     id="base"
     pagecolor="#ffffff"
     bordercolor="#666666"
     borderopacity="1.0"
     inkscape:pageopacity="0.0"
     inkscape:pageshadow="2"
     inkscape:zoom="6.9655838"
     inkscape:cx="64.888"
     inkscape:cy="13.7517"
     inkscape:document-units="mm"
     inkscape:current-layer="layer1"
     showgrid="false"
     fit-margin-top="0"
     fit-margin-left="0"
     fit-margin-right="0"
     fit-margin-bottom="0"
     units="px"
     inkscape:window-width="1280"
     inkscape:window-height="744"
     inkscape:window-x="-4"
     inkscape:window-y="-4"
     inkscape:window-maximized="1" />
  <metadata
     id="metadata5400">
    <rdf:RDF>
      <cc:Work
         rdf:about="">
        <dc:format>image/svg+xml</dc:format>
        <dc:type
           rdf:resource="http://purl.org/dc/dcmitype/StillImage" />
        <dc:title></dc:title>
      </cc:Work>
    </rdf:RDF>
  </metadata>
  <g
     inkscape:label="Layer 1"
     inkscape:groupmode="layer"
     id="layer1"
     transform="translate(-84.261632,-200.2471)">
    <g
       id="g5454"
       style="fill:#62B8DF;fill-opacity:1"
       transform="translate(0.13229231,-0.1322882)">
      <g
         style="fill:#62B8DF;fill-opacity:1"
         transform="matrix(0.35277777,0,0,-0.35277777,113.37923,200.74028)"
         id="g4646">
        <path
           inkscape:connector-curvature="0"
           id="path4648"
           style="fill:#62B8DF;fill-opacity:1;fill-rule:nonzero;stroke:none"
           d="m 0,0 h 5.148 c 1.624,0 2.521,0.019 3.302,-0.138 1.155,-0.23 1.98,-0.678 2.541,-1.344 0.502,-0.597 0.72,-1.254 0.816,-2.066 0.079,-0.67 0.005,-1.995 -0.461,-2.797 -0.486,-0.833 -1.76,-1.55 -3.759,-1.69 l 5.357,-4.869 H 10.675 L 5.414,-8.122 H 2.136 v -4.782 H 0 Z m 2.136,-1.543 v -5.072 l 4.081,-0.017 c 0.977,0 1.697,0.08 2.166,0.238 0.468,0.159 1.111,0.399 1.366,1.033 0.162,0.405 0.134,1.228 0.124,1.715 -0.013,0.42 -0.134,0.801 -0.4,1.144 -0.266,0.345 -0.616,0.59 -1.046,0.736 -0.43,0.151 -1.148,0.223 -2.151,0.223 h -4.14" />
      </g>
      <g
         style="fill:#62B8DF;fill-opacity:1"
         transform="matrix(0.35277777,0,0,-0.35277777,111.50738,201.23558)"
         id="g4650">
        <path
           inkscape:connector-curvature="0"
           id="path4652"
           style="fill:#62B8DF;fill-opacity:1;fill-rule:nonzero;stroke:none"
           d="m 0,0 c -1.363,1.367 -3.054,2.052 -5.079,2.052 -1.246,0 -2.408,-0.315 -3.479,-0.942 -1.071,-0.632 -1.919,-1.5 -2.538,-2.611 -0.622,-1.109 -0.93,-2.315 -0.93,-3.616 0,-1.949 0.679,-3.613 2.044,-4.985 1.362,-1.376 3.033,-2.061 5.014,-2.061 1.956,0 3.613,0.689 4.973,2.069 1.357,1.382 2.037,3.062 2.037,5.043 C 2.042,-3.053 1.361,-1.369 0,0 m -0.575,-7.697 c -0.444,-0.794 -1.061,-1.423 -1.854,-1.878 -0.791,-0.46 -1.657,-0.687 -2.587,-0.687 -1.396,0 -2.588,0.497 -3.576,1.492 -0.991,0.996 -1.486,2.219 -1.486,3.666 0,0.975 0.225,1.861 0.673,2.656 0.447,0.795 1.069,1.425 1.862,1.895 0.798,0.469 1.638,0.704 2.527,0.704 0.904,0 1.759,-0.235 2.568,-0.704 0.805,-0.47 1.429,-1.094 1.873,-1.874 0.444,-0.783 0.665,-1.655 0.665,-2.621 0,-0.971 -0.221,-1.855 -0.665,-2.649" />
      </g>
      <g
         style="fill:#62B8DF;fill-opacity:1"
         transform="matrix(0.35277777,0,0,-0.35277777,84.304323,200.74628)"
         id="g4654">
        <path
           inkscape:connector-curvature="0"
           id="path4656"
           style="fill:#62B8DF;fill-opacity:1;fill-rule:nonzero;stroke:none"
           d="M 0,0 H 12.404 L 11.143,-1.73 H 2.247 V -5.546 H 9.951 V -7.175 H 2.247 v -3.933 h 8.75 l 1.336,-1.765 H 0 V 0" />
      </g>
      <g
         style="fill:#62B8DF;fill-opacity:1"
         transform="matrix(0.35277777,0,0,-0.35277777,103.11196,200.77028)"
         id="g4658">
        <path
           inkscape:connector-curvature="0"
           id="path4660"
           style="fill:#62B8DF;fill-opacity:1;fill-rule:nonzero;stroke:none"
           d="m 0,0 h 2.198 v -11.216 l 7.07,-0.021 1.124,-1.529 H 0 V 0" />
      </g>
      <path
         inkscape:connector-curvature="0"
         id="path4662"
         style="fill:#62B8DF;fill-opacity:1;fill-rule:nonzero;stroke:none;stroke-width:0.35277778"
         d="m 100.57479,205.29747 h 0.74966 v -4.5272 h -0.74966 z" />
      <g
         style="fill:#62B8DF;fill-opacity:1"
         transform="matrix(0.35277777,0,0,-0.35277777,97.305234,202.69891)"
         id="g4664">
        <path
           inkscape:connector-curvature="0"
           id="path4666"
           style="fill:#62B8DF;fill-opacity:1;fill-rule:nonzero;stroke:none"
           d="m 0,0 c -2.415,0.73 -3.494,1.259 -3.494,2.492 0,1.004 0.973,2.019 3.136,2.019 1.624,0 2.909,-0.455 3.574,-0.751 l 0.641,1.482 c -1.039,0.471 -2.579,0.754 -4.141,0.754 -3.48,0 -6.005,-1.605 -6.005,-3.812 0,-1.591 1.563,-2.828 4.645,-3.678 2.525,-0.719 3.422,-1.405 3.422,-2.631 0,-1.37 -1.352,-2.189 -3.618,-2.189 -1.561,0 -3.196,0.459 -4.236,0.896 l -0.646,-1.535 c 1.322,-0.555 3.069,-0.87 4.81,-0.87 3.94,0 6.487,1.54 6.487,3.923 0,1.827 -1.371,2.994 -4.575,3.9" />
      </g>
      <g
         style="fill:#62B8DF;fill-opacity:1"
         transform="matrix(0.35277777,0,0,-0.35277777,92.268625,202.69891)"
         id="g4668">
        <path
           inkscape:connector-curvature="0"
           id="path4670"
           style="fill:#62B8DF;fill-opacity:1;fill-rule:nonzero;stroke:none"
           d="m 0,0 c -2.415,0.73 -3.494,1.259 -3.494,2.492 0,1.004 0.971,2.019 3.135,2.019 1.624,0 2.909,-0.455 3.574,-0.751 l 0.641,1.482 c -1.038,0.471 -2.579,0.754 -4.141,0.754 -3.48,0 -6.006,-1.605 -6.006,-3.812 0,-1.591 1.564,-2.828 4.647,-3.678 2.524,-0.719 3.421,-1.405 3.421,-2.631 0,-1.37 -1.352,-2.189 -3.618,-2.189 -1.561,0 -3.196,0.459 -4.236,0.896 l -0.646,-1.535 c 1.323,-0.555 3.068,-0.87 4.81,-0.87 3.94,0 6.487,1.54 6.487,3.923 0,1.827 -1.371,2.994 -4.574,3.9" />
      </g>
      <g
         style="fill:#62B8DF;fill-opacity:1"
         transform="matrix(0.35277777,0,0,-0.35277777,118.30257,207.25046)"
         id="g4672">
        <path
           inkscape:connector-curvature="0"
           id="path4674"
           style="fill:#62B8DF;fill-opacity:1;fill-rule:nonzero;stroke:none"
           d="m 0,0 c 0.029,0.001 0.058,0.002 0.088,0.003 h -0.186 c -55.853,1.485 -93.831,0.093 -96.27,0 h -0.126 c 0,0 0.022,-0.001 0.059,-0.003 -0.037,-0.001 -0.059,-0.003 -0.059,-0.003 h 0.11 c 2.304,-0.1 40.333,-1.687 96.307,0 H 0.088 C 0.058,-0.001 0.029,0 0,0" />
      </g>
    </g>
  </g>
</svg>
