<?xml version="1.0" encoding="UTF-8"?>
<svg width="116px" height="50px" viewBox="0 0 116 50" version="1.1" xmlns="http://www.w3.org/2000/svg" xmlns:xlink="http://www.w3.org/1999/xlink">
    <title>Group 89</title>
    <g id="GrossOptic-Website" stroke="none" stroke-width="1" fill="none" fill-rule="evenodd">
        <g id="Grossoptic-Homepage" transform="translate(-60.000000, -45.000000)" fill="#003087">
            <g id="Group-16" transform="translate(30.000000, 20.000000)">
                <g id="Group-89" transform="translate(30.000000, 25.000000)">
                    <path d="M63.0691655,2.25841463 C70.9833997,6.38686992 78.3486791,14.3128862 78.3486791,27.8116667 C78.3486791,28.7844309 78.3246522,29.693374 78.2611233,30.5702033 C82.2100957,27.6092276 84.795233,22.7307724 84.795233,17.2096341 C84.795233,5.89093496 73.4129727,-2.62044715 63.0691655,2.25841463 M64.5722754,15.4596341 C62.870434,15.4596341 61.4943819,14.0787398 61.4943819,12.3840244 C61.4943819,10.6815854 62.870434,9.29987805 64.5722754,9.29987805 C66.2704516,9.29987805 67.6546485,10.6815854 67.6546485,12.3840244 C67.6546485,14.0787398 66.2704516,15.4596341 64.5722754,15.4596341 M49.0174699,0.118577236 C40.0546016,0.118577236 27.5842054,6.27589431 27.5842054,19.8372764 C27.5842054,26.2641057 30.8127764,36.6193902 42.0134092,36.6193902 C53.2197434,36.6193902 53.6416404,24.7945935 63.2442772,26.9506911 C67.4994914,27.9149187 68.9150455,31.5271138 67.8969542,34.5669512 C66.8711255,37.6197967 65.0935381,38.6559756 62.7152769,38.4177642 C60.3451605,38.1876829 59.7127222,36.949065 59.8438523,35.4803659 C59.9749825,33.9921545 61.8006237,32.8250813 63.4507461,33.6352439 L65.5227654,29.9271138 C64.9620007,29.3677642 64.0155831,28.4986585 61.919944,28.2405285 C57.9803381,27.7563821 53.0808757,31.3681707 53.0808757,36.949065 C53.0808757,41.6295528 57.1638289,45.2775203 62.0510742,45.7104472 C66.5090922,46.1071951 76.7576061,45.0116667 76.7576061,27.8116667 C76.7576061,6.8352439 57.9803381,0.118577236 49.0174699,0.118577236" id="Fill-73"></path>
                    <path d="M77.0957753,44.1858943 C77.0957753,45.3769512 77.4936454,46.353374 78.2967157,47.1115041 C79.0920486,47.8818293 80.0030367,48.2667886 81.0447477,48.2667886 C82.1780869,48.2667886 83.1285769,47.8736992 83.9084348,47.0915854 C84.6838131,46.305813 85.0694661,45.3452439 85.0694661,44.2176016 C85.0694661,43.0704472 84.6838131,42.109878 83.924317,41.3354878 C83.1607486,40.5615041 82.217996,40.1684146 81.0923943,40.1684146 C79.9749374,40.1684146 79.0244474,40.5615041 78.2531414,41.3354878 C77.4855006,42.105813 77.0957753,43.0545935 77.0957753,44.1858943 M75.461128,44.1741057 C75.461128,42.6615041 76.0141551,41.3594715 77.1275397,40.2757317 C78.2291145,39.1838618 79.5534476,38.6440244 81.1086838,38.6440244 C82.6517029,38.6440244 83.9597466,39.1919919 85.0576562,40.2875203 C86.1551586,41.3830488 86.7081857,42.6972764 86.7081857,44.2334553 C86.7081857,45.7818293 86.1551586,47.0915854 85.0535838,48.1676016 C83.9401992,49.2472764 82.5999839,49.7911789 81.0288655,49.7911789 C79.6328587,49.7911789 78.388344,49.3106911 77.2786245,48.350122 C76.0695393,47.2822358 75.461128,45.8928049 75.461128,44.1741057" id="Fill-75"></path>
                    <path d="M90.3786491,43.7293496 L90.9870604,43.7293496 C92.477546,43.7293496 93.2252323,43.1496748 93.2252323,42.0102439 C93.2252323,40.8988618 92.449854,40.3431707 90.9117217,40.3431707 L90.3786491,40.3431707 L90.3786491,43.7293496 Z M90.3786491,45.2297561 L90.3786491,49.5968293 L88.7521465,49.5968293 L88.7521465,38.8464228 L90.5932627,38.8464228 C91.4993639,38.8464228 92.1713042,38.9061789 92.6367755,39.0370732 C93.0941021,39.1643089 93.5078544,39.4021138 93.8617429,39.7399187 C94.4819641,40.3472358 94.7922783,41.1094309 94.7922783,42.0265041 C94.7922783,43.0106504 94.4583444,43.7886992 93.8018791,44.368374 C93.1417488,44.9439837 92.2429778,45.2297561 91.1304077,45.2297561 L90.3786491,45.2297561 Z" id="Fill-77"></path>
                    <polygon id="Fill-79" points="99.4333084 40.370935 99.4333084 49.5965447 97.8068058 49.5965447 97.8068058 40.370935 95.3332513 40.370935 95.3332513 38.8465447 101.906863 38.8465447 101.906863 40.370935"></polygon>
                    <polygon id="Fill-81" points="103.354589 49.596748 104.973354 49.596748 104.973354 38.846748 103.354589 38.846748"></polygon>
                    <path d="M115.523915,39.4221545 L115.523915,41.3355691 C114.585235,40.5534553 113.607053,40.1684959 112.600771,40.1684959 C111.499197,40.1684959 110.576806,40.5615854 109.805093,41.3514228 C109.049669,42.1412602 108.663609,43.1063008 108.663609,44.2453252 C108.663609,45.376626 109.049669,46.3254065 109.805093,47.1034553 C110.576806,47.8737805 111.507341,48.2668699 112.612989,48.2668699 C113.185563,48.2668699 113.670582,48.1713415 114.068452,47.9810976 C114.294875,47.8896341 114.525778,47.7705285 114.768491,47.6156504 C115.006725,47.4489837 115.25351,47.2583333 115.523915,47.0400407 L115.523915,49.0010163 C114.589307,49.529065 113.607053,49.7912602 112.588962,49.7912602 C111.05368,49.7912602 109.737492,49.2514228 108.651799,48.1794715 C107.570179,47.1034553 107.029369,45.7977642 107.029369,44.2693089 C107.029369,42.8957317 107.474478,41.6770325 108.389131,40.6050813 C109.502923,39.2953252 110.942504,38.6400407 112.712354,38.6400407 C113.686464,38.6400407 114.613334,38.8981707 115.523915,39.4221545" id="Fill-83"></path>
                    <path d="M11.3787581,43.5864634 C11.3522877,45.1543496 11.237447,46.5002846 10.2832919,47.8380894 C9.22447696,49.3108537 7.63584736,49.949878 5.83423306,49.949878 C2.44969047,49.949878 0.0864970336,47.6515041 0.0864970336,44.2693902 C0.0864970336,40.7758943 2.46109309,38.4811789 5.93889284,38.4811789 C8.15140877,38.4811789 9.86750341,39.4779268 10.7923375,41.4905285 L8.13552655,42.6059756 C7.75028082,41.5738618 6.93377163,40.890935 5.80816993,40.890935 C3.96094514,40.890935 3.00190317,42.645813 3.00190317,44.2852439 C3.0055683,45.9563821 4.00614839,47.6515041 5.85011529,47.6515041 C7.06612349,47.6515041 7.99258654,47.0283333 8.11109236,45.7856504 L5.82405215,45.7856504 L5.82405215,43.5864634 L11.3787581,43.5864634 Z" id="Fill-84"></path>
                    <path d="M15.4571095,43.6539431 L15.7275145,43.6539431 C16.6442039,43.6539431 17.6712544,43.4872764 17.6712544,42.3161382 C17.6712544,41.149065 16.6442039,40.9823984 15.7275145,40.9823984 L15.4571095,40.9823984 L15.4571095,43.6539431 Z M21.6202268,49.592561 L18.1293954,49.592561 L15.4868378,45.4523171 L15.4571095,45.4523171 L15.4571095,49.592561 L12.6573585,49.592561 L12.6573585,38.8348374 L16.8408991,38.8348374 C18.9727822,38.8348374 20.5931763,39.8470325 20.5931763,42.1494715 C20.5931763,43.6263008 19.7587487,44.9124797 18.2299829,45.1864634 L21.6202268,49.592561 Z" id="Fill-85"></path>
                    <path d="M24.7400249,44.0270732 C24.7400249,45.8847967 26.110783,47.2384553 27.7833033,47.2384553 C29.4533802,47.2384553 30.826584,45.8847967 30.826584,44.0270732 C30.8286179,42.5425203 29.4533802,41.1925203 27.7833033,41.1925203 C26.110783,41.1925203 24.7400249,42.5425203 24.7400249,44.0270732 M33.7444313,44.0189431 C33.7444313,47.4965854 31.240334,49.9498374 27.7833033,49.9498374 C24.3250509,49.9498374 21.8201392,47.4965854 21.8201392,44.0189431 C21.8201392,40.76 24.6785322,38.4811382 27.7833033,38.4811382 C30.8811514,38.4811382 33.7444313,40.76 33.7444313,44.0189431" id="Fill-86"></path>
                    <path d="M40.9523138,41.6055285 C40.4347162,41.1730081 39.7790654,40.8908943 39.0916502,40.8908943 C38.5703875,40.8908943 37.8951893,41.1925203 37.8951893,41.7880488 C37.8951893,42.4152846 38.6489841,42.6734146 39.1352245,42.8165041 L39.843816,43.0307317 C41.3493694,43.4713821 42.5071428,44.2295122 42.5071428,45.9681301 C42.5071428,47.0400813 42.2526199,48.1356098 41.3909075,48.862439 C40.5499641,49.5766667 39.4166249,49.8823577 38.3317469,49.8823577 C36.9719842,49.8823577 35.6513162,49.4221951 34.5460763,48.6518699 L35.7449806,46.4010569 C36.4437984,47.012439 37.2761898,47.512439 38.2323812,47.512439 C38.8876247,47.512439 39.5933656,47.1791057 39.5933656,46.4286992 C39.5933656,45.6429268 38.486904,45.3689431 37.8951893,45.1982114 C36.1294119,44.7018699 34.9732674,44.2413008 34.9732674,42.1571545 C34.9732674,39.9778862 36.5285036,38.5486179 38.6925584,38.5486179 C39.7790654,38.5486179 41.1054347,38.8941463 42.0697707,39.4299187 L40.9523138,41.6055285 Z" id="Fill-87"></path>
                    <path d="M49.7480929,41.6055285 C49.2296808,41.1730081 48.5719938,40.8908943 47.8906872,40.8908943 C47.3751258,40.8908943 46.690154,41.1925203 46.690154,41.7880488 C46.690154,42.4152846 47.442727,42.6734146 47.9289674,42.8165041 L48.6436675,43.0307317 C50.1431123,43.4713821 51.3041436,44.2295122 51.3041436,45.9681301 C51.3041436,47.0400813 51.0496207,48.1356098 50.1887228,48.862439 C49.3514445,49.5766667 48.2181053,49.8823577 47.1267115,49.8823577 C45.7693922,49.8823577 44.4454663,49.4221951 43.3426699,48.6518699 L44.5436103,46.4010569 C45.2444644,47.012439 46.0727834,47.512439 47.0330471,47.512439 C47.68544,47.512439 48.3850723,47.1791057 48.3850723,46.4286992 C48.3850723,45.6429268 47.2834975,45.3689431 46.690154,45.1982114 C44.9284488,44.7018699 43.7710827,44.2413008 43.7710827,42.1571545 C43.7710827,39.9778862 45.3263189,38.5486179 47.4883375,38.5486179 C48.5719938,38.5486179 49.9073223,38.8941463 50.8614775,39.4299187 L49.7480929,41.6055285 Z" id="Fill-88"></path>
                </g>
            </g>
        </g>
    </g>
</svg>