<svg xmlns="http://www.w3.org/2000/svg" width="221.743" height="44.149" viewBox="0 0 221.743 44.149">
  <g id="logo" transform="translate(-421.345 -239.367)">
    <rect id="Rectangle_1" data-name="Rectangle 1" width="44.151" height="44.149" transform="translate(421.345 239.367)" fill="#e50019"/>
    <g id="Group_1" data-name="Group 1" transform="translate(427.563 247.634)">
      <path id="Path_1" data-name="Path 1" d="M447.011,248.814H428.45l7.4,7.4v22.2l7.885-7.825a14.71,14.71,0,0,0,3.188.426h.062a11.1,11.1,0,0,0,11.07-11.043v-.123A11.1,11.1,0,0,0,447.011,248.814Zm-.056,19.167a8.064,8.064,0,1,1,8.064-8.064A8.064,8.064,0,0,1,446.955,267.981Z" transform="translate(-428.45 -248.814)" fill="#fff"/>
    </g>
    <g id="Group_3" data-name="Group 3" transform="translate(479.734 254.304)">
      <g id="Group_2" data-name="Group 2">
        <path id="Path_2" data-name="Path 2" d="M499.314,265.8h-8.146v4.875h-3.1v-14.24H499.43c3.472,0,5.955,1.251,5.955,3.3v2.194C505.385,264.43,503.17,265.8,499.314,265.8Zm2.989-5.568c0-.651-1.483-1.161-2.857-1.161h-8.277v4.07h8.277c1.913,0,2.857-.427,2.857-1.294Z" transform="translate(-488.065 -256.435)" fill="#1a1818"/>
        <path id="Path_3" data-name="Path 3" d="M522.863,270.675h-3.79c-4.087,0-6.533-1.387-6.533-3.915v-6.372c0-2.621,2.177-3.953,6.533-3.953h3.79c4.706,0,6.536,1.214,6.536,3.953v6.351Q529.4,270.672,522.863,270.675Zm3.433-10.232c0-.9-1.12-1.372-3.388-1.372h-3.856c-2.271,0-3.408.467-3.408,1.372v6.266c0,.846,1.137,1.286,3.408,1.286h3.892c2.233,0,3.353-.439,3.353-1.286Z" transform="translate(-491.121 -256.435)" fill="#1a1818"/>
        <path id="Path_4" data-name="Path 4" d="M544.874,270.675c-4.856,0-6.839-1.2-6.839-3.873V256.435h3.106V266.8c0,.884,1,1.193,3.871,1.193H552.7v2.681Z" transform="translate(-494.304 -256.435)" fill="#1a1818"/>
        <path id="Path_5" data-name="Path 5" d="M582.014,270.675H578.22c-4.084,0-6.533-1.387-6.533-3.915v-6.372c0-2.621,2.174-3.953,6.533-3.953h3.795c4.7,0,6.532,1.214,6.532,3.953v6.351Q588.547,270.672,582.014,270.675Zm3.429-10.232c0-.9-1.117-1.372-3.389-1.372H578.2c-2.27,0-3.408.467-3.408,1.372v6.266c0,.846,1.138,1.286,3.408,1.286h3.893c2.236,0,3.353-.439,3.353-1.286Z" transform="translate(-498.506 -256.435)" fill="#1a1818"/>
        <path id="Path_6" data-name="Path 6" d="M609.988,265.8h-8.156v4.875h-3.1v-14.24H610.1c3.471,0,5.951,1.251,5.951,3.3v2.194C616.051,264.43,613.835,265.8,609.988,265.8Zm2.984-5.568c0-.651-1.483-1.161-2.856-1.161h-8.285v4.07h8.285c1.909,0,2.856-.427,2.856-1.294Z" transform="translate(-501.883 -256.435)" fill="#1a1818"/>
        <path id="Path_7" data-name="Path 7" d="M632.265,259.071v11.6h-3.084v-11.6h-6.275v-2.636h15.662v2.636Z" transform="translate(-504.902 -256.435)" fill="#1a1818"/>
        <path id="Path_8" data-name="Path 8" d="M646.722,270.675v-14.24h3.1v14.24Z" transform="translate(-507.875 -256.435)" fill="#1a1818"/>
        <path id="Path_9" data-name="Path 9" d="M662.914,270.675c-4.159,0-6.263-1.268-6.263-3.795v-6.86c0-2.253,2.258-3.585,5.9-3.585h9.919v2.636H662.225c-1.659,0-2.471.318-2.471.95v6.8c0,.812,1.066,1.174,3.161,1.174h9.555v2.681Z" transform="translate(-509.115 -256.435)" fill="#1a1818"/>
      </g>
    </g>
  </g>
</svg>
