<svg xmlns="http://www.w3.org/2000/svg" width="220" height="56" viewBox="0 0 220 56" role="img" aria-labelledby="title">
  <title id="title">Silaro</title>
  <g fill="none" fill-rule="evenodd">
    <path fill="#63B7DE" d="M15.5 29.9c9.7-14.4 25.8-20.2 41.8-16.1 5.6 1.4 10.4 3.9 14.2 7.2 1.7 1.5 1.9 4 .5 5.7-1.5 1.7-4 1.9-5.7.5-2.9-2.5-6.5-4.3-10.9-5.5-12.7-3.3-25.5 1.4-33.2 12.8-1.3 1.9-3.8 2.4-5.7 1.1-1.8-1.3-2.3-3.8-1-5.7Z"/>
    <path fill="#8BD3F3" d="M35.2 42.5c-5.8 0-10.9-1.5-15.3-4.5-1.9-1.3-2.4-3.8-1.1-5.7 1.3-1.8 3.8-2.3 5.7-1 8.9 6 22.7 2.7 32.9-7.9 1.6-1.6 4.1-1.7 5.7-.1 1.6 1.6 1.7 4.1.1 5.7-8.2 8.6-18.3 13.5-28 13.5Z"/>
    <text x="80" y="37" fill="#62B8DF" font-family="Arial, Helvetica, sans-serif" font-size="31" font-weight="700" letter-spacing="4.5">SILARO</text>
  </g>
</svg>
